<?xml version="1.0" standalone="no"?>
<!DOCTYPE svg PUBLIC "-//W3C//DTD SVG 20010904//EN"
 "http://www.w3.org/TR/2001/REC-SVG-20010904/DTD/svg10.dtd">
<svg version="1.0" xmlns="http://www.w3.org/2000/svg"
 width="198.000000pt" height="198.000000pt" viewBox="0 0 198.000000 198.000000"
 preserveAspectRatio="xMidYMid meet">
<metadata>
Created by potrace 1.14, written by Peter Selinger 2001-2017
</metadata>
<g transform="translate(0.000000,198.000000) scale(0.100000,-0.100000)"
fill="#000000" stroke="none">
<path d="M940 1880 c0 -47 -2 -50 -25 -50 -20 0 -25 -5 -25 -25 0 -23 -3 -25
-50 -25 -47 0 -50 -2 -50 -25 0 -23 -3 -25 -50 -25 -47 0 -50 -2 -50 -25 0
-24 -2 -25 -75 -25 -68 0 -75 -2 -75 -20 0 -11 -6 -20 -14 -20 -7 0 -28 -3
-45 -6 -28 -6 -31 -4 -31 20 0 25 -3 26 -50 26 l-50 0 0 -50 c0 -43 3 -50 19
-50 13 0 21 -8 23 -22 2 -15 11 -24 26 -26 14 -2 22 -10 22 -22 0 -16 9 -19
53 -22 l52 -3 3 -95 c2 -52 0 -118 -3 -147 -5 -43 -10 -52 -28 -55 -14 -2 -23
-11 -25 -25 -3 -17 -10 -23 -28 -23 -19 0 -24 -5 -24 -25 0 -24 -2 -25 -69
-25 -65 0 -70 2 -73 23 -3 19 -10 22 -50 25 l-48 3 0 -50 c0 -44 3 -51 20 -51
15 0 20 -7 20 -25 0 -21 5 -25 30 -25 25 0 30 -4 30 -25 0 -23 3 -25 50 -25
l50 0 0 -114 c0 -140 -6 -176 -31 -176 -12 0 -19 -9 -21 -27 -2 -22 -9 -29
-31 -31 -19 -2 -27 -9 -27 -23 0 -15 -7 -19 -32 -19 -18 0 -50 -3 -71 -6 -35
-6 -37 -5 -37 20 0 25 -3 26 -50 26 l-50 0 0 -50 c0 -47 2 -50 25 -50 20 0 25
-5 25 -25 0 -20 5 -25 25 -25 18 0 25 -5 25 -19 0 -17 8 -20 48 -23 l47 -3 3
-172 2 -173 740 0 740 0 0 175 0 175 50 0 c43 0 50 3 50 20 0 15 7 20 25 20
20 0 25 5 25 25 0 20 5 25 25 25 23 0 25 3 25 50 l0 50 -50 0 c-47 0 -50 -1
-50 -26 0 -25 -2 -26 -37 -20 -21 3 -53 6 -70 6 -26 0 -33 4 -33 19 0 14 -8
21 -27 23 -22 2 -29 9 -31 31 -2 18 -9 27 -21 27 -25 0 -31 36 -31 176 l0 114
50 0 c47 0 50 2 50 25 0 21 5 25 30 25 25 0 30 4 30 25 0 18 5 25 20 25 17 0
20 7 20 50 l0 50 -50 0 c-47 0 -50 -2 -50 -25 0 -24 -2 -25 -70 -25 -68 0 -70
1 -70 25 0 20 -5 25 -24 25 -18 0 -25 6 -28 23 -2 14 -11 23 -25 25 -18 3 -23
12 -28 55 -3 29 -5 95 -3 147 l3 95 53 3 c43 3 52 6 52 22 0 12 8 20 23 22 14
2 23 11 25 26 2 14 10 22 23 22 16 0 19 7 19 50 l0 50 -50 0 c-47 0 -50 -1
-50 -26 0 -24 -3 -26 -31 -20 -17 3 -38 6 -45 6 -8 0 -14 9 -14 20 0 18 -7 20
-75 20 -73 0 -75 1 -75 25 0 23 -3 25 -50 25 -47 0 -50 2 -50 25 0 23 -3 25
-50 25 -47 0 -50 2 -50 25 0 20 -5 25 -25 25 -23 0 -25 3 -25 50 l0 50 -50 0
-50 0 0 -50z m100 -125 c0 -23 4 -25 45 -25 41 0 45 -2 45 -25 0 -23 3 -25 49
-25 44 0 50 -3 53 -22 3 -21 9 -23 75 -26 65 -3 72 -5 75 -25 3 -19 10 -22 51
-25 39 -3 47 -6 47 -23 0 -19 -11 -19 -490 -19 -479 0 -490 0 -490 19 0 17 8
20 48 23 40 3 47 6 50 25 3 20 10 22 75 25 65 3 72 5 75 25 3 19 11 22 50 25
40 3 47 6 50 26 3 19 9 22 48 22 40 0 44 2 44 25 0 23 3 25 50 25 47 0 50 -2
50 -25z m350 -395 l0 -120 -400 0 -400 0 0 120 0 120 400 0 400 0 0 -120z m0
-200 c0 -13 7 -20 20 -20 15 0 20 -7 20 -24 0 -19 6 -25 28 -28 19 -2 28 -9
30 -25 3 -21 8 -23 73 -23 67 0 69 -1 69 -25 l0 -25 -640 0 -640 0 0 25 c0 24
2 25 69 25 65 0 70 2 73 23 2 16 11 23 31 25 21 3 27 9 27 28 0 17 5 24 20 24
13 0 20 7 20 20 0 20 7 20 400 20 393 0 400 0 400 -20z m140 -345 l0 -125
-540 0 -540 0 0 125 0 125 540 0 540 0 0 -125z m2 -197 c2 -15 11 -24 26 -26
16 -3 22 -10 22 -28 0 -20 5 -24 30 -24 23 0 30 -5 30 -19 0 -20 34 -31 101
-31 32 0 39 -3 39 -20 0 -20 -7 -20 -790 -20 -783 0 -790 0 -790 20 0 17 7 20
39 20 67 0 101 11 101 31 0 14 7 19 30 19 25 0 30 4 30 24 0 18 6 25 23 28 14
2 23 11 25 26 l3 22 539 0 539 0 3 -22z m148 -368 l0 -150 -220 0 -220 0 0
100 0 100 -250 0 -250 0 0 -100 0 -100 -220 0 -220 0 0 150 0 150 690 0 690 0
0 -150z m-500 -80 l0 -70 -190 0 -190 0 0 70 0 70 190 0 190 0 0 -70z"/>
</g>
</svg>
